<svg width="55" height="55" viewBox="0 0 55 55" fill="none" xmlns="http://www.w3.org/2000/svg">
<g clip-path="url(#clip0_301_1985)">
<path d="M27.5 55.0001C42.6878 55.0001 55 42.6879 55 27.5001C55 12.3123 42.6878 0 27.5 0C12.3122 0 0 12.3123 0 27.5001C0 42.6879 12.3122 55.0001 27.5 55.0001Z" fill="#B3B3B3"/>
<path d="M35.8151 53.677C36.3702 53.512 36.9199 53.3296 37.4634 53.1299C38.3186 52.7982 39.1566 52.424 39.9744 52.0086C40.7912 51.5921 41.5866 51.135 42.3578 50.639C43.1292 50.144 43.8754 49.6107 44.5935 49.0411C45.3115 48.4716 46.0005 47.8666 46.658 47.2284C47.3168 46.5887 47.9431 45.9165 48.5345 45.2142C49.1245 44.5139 49.6791 43.7845 50.1962 43.0289C50.714 42.2711 51.1935 41.488 51.633 40.6824C52.0723 39.8781 52.4712 39.0524 52.8281 38.2083C52.9715 37.8398 53.1069 37.4682 53.2343 37.0938L35.993 19.8526C35.969 19.8285 35.9401 19.8093 35.9158 19.7854C35.3068 19.1867 34.6299 18.6499 33.895 18.1875C33.7977 18.1264 33.6988 18.0681 33.5996 18.0096C33.3102 17.839 33.0127 17.6801 32.7066 17.5329C32.606 17.4846 32.5069 17.4343 32.4045 17.3886C32.0008 17.2082 31.5887 17.0425 31.1591 16.9052C30.9746 16.8432 30.7745 16.8457 30.5916 16.9121C30.4086 16.9786 30.2537 17.1052 30.152 17.2711L28.3661 15.4852C28.3679 15.3701 28.3465 15.2558 28.3033 15.1491C28.2601 15.0424 28.1959 14.9454 28.1145 14.864C28.0331 14.7826 27.9361 14.7184 27.8294 14.6752C27.7227 14.632 27.6084 14.6106 27.4933 14.6124C27.3804 14.6142 27.269 14.6381 27.1654 14.683C27.0619 14.7278 26.9681 14.7926 26.8895 14.8736C26.811 14.9547 26.7492 15.0504 26.7076 15.1553C26.6661 15.2603 26.6456 15.3724 26.6473 15.4852V19.6847L24.9521 17.9895C24.9973 17.8565 25.0091 17.7145 24.9867 17.5758C24.9643 17.4372 24.9082 17.3061 24.8234 17.1942C24.7386 17.0822 24.6277 16.9927 24.5003 16.9336C24.3729 16.8744 24.233 16.8474 24.0927 16.8548V16.8582C24.0152 16.8613 23.9384 16.8748 23.8644 16.8985C22.0995 17.4581 20.5461 18.3982 19.2688 19.6008C19.014 19.8407 18.769 20.0893 18.537 20.3494V20.3528C18.305 20.6129 18.0805 20.8799 17.8723 21.1584V21.1618C17.6643 21.4403 17.468 21.7259 17.2849 22.0212V22.0245C17.1018 22.3197 16.9317 22.6241 16.7746 22.9342C16.459 23.557 16.1966 24.2058 15.9924 24.8779C15.8905 25.2135 15.8031 25.5532 15.7306 25.8984V25.9018C15.6584 26.2459 15.6012 26.5939 15.5594 26.9458V26.9491C15.4759 27.6541 15.454 28.3721 15.499 29.0976V29.1009C15.5215 29.4632 15.5602 29.8273 15.6165 30.1919V30.1953C15.6175 30.2021 15.6188 30.2086 15.6198 30.2154C15.7103 30.7944 15.8543 31.3543 16.0226 31.9006C16.0516 31.9945 16.0755 32.0898 16.1066 32.1826C16.2812 32.7034 16.494 33.2052 16.7343 33.6899C16.7812 33.7844 16.8261 33.8788 16.8753 33.9718C17.1231 34.4401 17.3999 34.8867 17.7045 35.3146C17.7753 35.4141 17.849 35.5095 17.9227 35.6067C18.2436 36.0298 18.5843 36.436 18.9566 36.8118C18.97 36.8253 18.9801 36.842 18.9935 36.8554L35.8151 53.677Z" fill="#5B5C61"/>
<path d="M27.4933 14.6114C27.3804 14.6132 27.269 14.6372 27.1654 14.682C27.0618 14.7268 26.9681 14.7916 26.8895 14.8726C26.811 14.9537 26.7492 15.0494 26.7076 15.1543C26.666 15.2593 26.6456 15.3714 26.6473 15.4842V22.3592C26.6457 22.4731 26.6668 22.5862 26.7092 22.6919C26.7517 22.7975 26.8147 22.8937 26.8947 22.9748C26.9747 23.0559 27.0699 23.1203 27.175 23.1643C27.2801 23.2082 27.3928 23.2309 27.5067 23.2309C27.6206 23.2309 27.7334 23.2082 27.8384 23.1643C27.9435 23.1203 28.0388 23.0559 28.1187 22.9748C28.1987 22.8937 28.2617 22.7975 28.3042 22.6919C28.3467 22.5862 28.3677 22.4731 28.3661 22.3592V15.4842C28.3679 15.3691 28.3465 15.2548 28.3033 15.1481C28.2601 15.0414 28.1959 14.9445 28.1145 14.8631C28.0331 14.7816 27.9361 14.7174 27.8294 14.6742C27.7227 14.631 27.6084 14.6096 27.4933 14.6114ZM24.0927 16.8639V16.8673C24.0151 16.8703 23.9384 16.8839 23.8644 16.9076C18.2194 18.6975 14.714 24.3485 15.6165 30.201C16.5188 36.0535 21.5645 40.3828 27.4866 40.3893C33.4086 40.3893 38.4649 36.075 39.3802 30.2245C40.2954 24.3741 36.8001 18.7166 31.1591 16.9143C30.9418 16.8449 30.7059 16.8646 30.5032 16.9691C30.3005 17.0736 30.1477 17.2544 30.0782 17.4716C30.0088 17.6888 30.0285 17.9247 30.133 18.1274C30.2374 18.3301 30.4182 18.483 30.6354 18.5525C35.481 20.1005 38.4677 24.934 37.6816 29.9593C36.8954 34.9846 32.5769 38.6762 27.4899 38.6706C22.4029 38.6706 18.0902 34.9664 17.3151 29.9392C16.5399 24.9122 19.5357 20.0832 24.3848 18.5458C24.5864 18.4856 24.759 18.3536 24.8698 18.1747C24.9806 17.9958 25.0219 17.7824 24.9859 17.5751C24.9499 17.3678 24.8391 17.1808 24.6745 17.0498C24.5098 16.9187 24.3028 16.8526 24.0927 16.8639Z" fill="white"/>
</g>
<defs>
<clipPath id="clip0_301_1985">
<rect width="55" height="55" fill="white"/>
</clipPath>
</defs>
</svg>
