<svg width="72" height="72" viewBox="0 0 72 72" fill="none" xmlns="http://www.w3.org/2000/svg">
<path d="M36 3.9375C27.4995 3.94715 19.3498 7.32826 13.3391 13.3391C7.32826 19.3498 3.94715 27.4995 3.9375 36C5.69888 78.5352 66.3076 78.5229 68.0626 35.9997C68.0528 27.4992 64.6717 19.3497 58.6609 13.3389C52.6501 7.32821 44.5005 3.94715 36 3.9375ZM36 64.6875C28.3943 64.6788 21.1025 61.6536 15.7245 56.2755C10.3464 50.8975 7.32117 43.6057 7.3125 36C8.88863 -2.0578 63.1171 -2.04676 64.6876 36.0002C64.6788 43.6059 61.6536 50.8976 56.2755 56.2756C50.8974 61.6536 43.6057 64.6788 36 64.6875Z" fill="#049C6B"/>
<path d="M47.227 26.4754L31.9203 41.782L24.8632 34.7255C24.5452 34.4167 24.1184 34.2454 23.6752 34.2486C23.2319 34.2518 22.8077 34.4294 22.4942 34.7428C22.1808 35.0563 22.0033 35.4805 22 35.9238C21.9968 36.3671 22.1682 36.7938 22.477 37.1118L30.7273 45.3619C31.0449 45.676 31.4736 45.8522 31.9204 45.8522C32.3671 45.8522 32.7958 45.676 33.1135 45.3619L49.6133 28.8615C49.9214 28.5434 50.0921 28.1169 50.0885 27.674C50.085 27.2311 49.9075 26.8074 49.5943 26.4942C49.2811 26.1811 48.8574 26.0036 48.4145 26.0001C47.9716 25.9965 47.5451 26.1673 47.227 26.4754Z" fill="#049C6B"/>
</svg>
